<svg width="100" height="26" viewBox="0 0 100 26" fill="none" xmlns="http://www.w3.org/2000/svg"><g id="agt-logo" clip-path="url(#clip0_2120_2659)"><path id="Vector" d="M0 0.539062H19.9428V5.52361H4.98455V20.4818H0V0.539062Z" fill="#009639"/><path id="Vector_2" d="M24.9271 25.4616H4.98438V20.4771H19.9426V5.52344H24.9271V25.4616Z" fill="#C8102E"/><path id="Vector_3" d="M47.315 16.1637L44.0011 5.17214L40.6871 16.1637H47.3195H47.315ZM48.2507 0.539062L56.8367 25.4664H50.2546L48.73 20.8287H39.2584L37.743 25.4664H31.1562L39.7423 0.539062H48.2507Z" fill="black"/><path id="Vector_4" d="M81.7617 0.539062H99.7098V6.5187H94.0496V25.4618H87.4173V6.5187H81.7617V0.539062Z" fill="black"/><path id="Vector_5" d="M68.5991 0C71.9358 0 76.3908 1.07268 79.1433 4.60112C79.4172 4.9526 79.7504 5.44558 79.9878 5.85639L74.1907 8.51299L74.0401 8.27563C72.8807 6.55934 70.6212 5.70119 68.6036 5.70119C66.5861 5.70119 64.8104 6.55934 63.6556 8.27563C62.8568 9.46699 62.3045 11.1605 62.3045 13.2556C62.3045 15.3508 62.8568 17.0442 63.6556 18.2356C64.8104 19.9519 66.5861 20.8237 68.6036 20.8237C70.8814 20.8237 73.118 20.1527 74.2729 18.4364C74.6654 17.8522 74.9986 17.026 75.2086 16.1633H68.6036V11.0053H81.5671C81.6401 11.6397 81.6767 12.3199 81.6767 13C81.6767 16.4645 80.6588 19.5456 79.1205 21.5221C76.3726 25.0506 71.9449 26 68.6082 26C65.2715 26 61.1177 24.7949 58.3652 21.2665C56.8224 19.29 55.5352 16.4645 55.5352 13C55.5352 9.53546 56.8269 6.70997 58.3652 4.7335C61.1131 1.20506 65.2669 0 68.6082 0" fill="black"/></g><defs><clipPath id="clip0_2120_2659"><rect width="99.7093" height="26" fill="white"/></clipPath></defs></svg>