<svg xmlns="http://www.w3.org/2000/svg" xmlns:xlink="http://www.w3.org/1999/xlink" width="2000" zoomAndPan="magnify" viewBox="0 0 1500 1499.999933" height="2000" preserveAspectRatio="xMidYMid meet" version="1.0"><defs><g/><clipPath id="cdcaa789e0"><path d="M 268 470.640625 L 1232 470.640625 L 1232 742.140625 L 268 742.140625 Z M 268 470.640625 " clip-rule="nonzero"/></clipPath><clipPath id="6e60fbf97a"><path d="M 315 533 L 1189 533 L 1189 742.140625 L 315 742.140625 Z M 315 533 " clip-rule="nonzero"/></clipPath><clipPath id="66ca654621"><path d="M 776 28 L 872 28 L 872 165.519531 L 776 165.519531 Z M 776 28 " clip-rule="nonzero"/></clipPath><clipPath id="48ff6de145"><rect x="0" width="1196" y="0" height="166"/></clipPath></defs><g clip-path="url(#cdcaa789e0)"><path fill="#c21d2e" d="M 683.316406 545.929688 L 640.753906 585.074219 C 639.28125 586.425781 638.410156 588.3125 638.324219 590.3125 L 637.898438 600.546875 C 637.832031 602.078125 637.160156 603.527344 636.019531 604.566406 L 620.550781 618.632812 C 620.035156 619.097656 619.355469 619.351562 618.660156 619.335938 L 608.539062 619.082031 C 607.316406 619.050781 606.144531 619.558594 605.339844 620.480469 L 590.074219 637.828125 C 589.238281 638.777344 589.328125 640.226562 590.289062 641.066406 L 620.179688 667.273438 C 621.089844 668.070312 622.460938 668.027344 623.308594 667.171875 L 642.121094 648.359375 C 643.054688 647.425781 643.53125 646.121094 643.375 644.816406 C 643.011719 641.851562 644.851562 639.554688 644.851562 639.554688 C 648.304688 635.777344 651.089844 633.535156 655.195312 631.183594 C 677.84375 620.019531 697.210938 639.390625 697.210938 639.390625 L 809.144531 742.148438 L 633.535156 742.148438 L 468.644531 549.222656 L 297.730469 742.148438 L 268.191406 742.148438 L 297.730469 709.976562 L 297.730469 622.324219 L 334.164062 622.324219 L 334.164062 668.613281 L 463.824219 523.507812 Z M 1231.9375 742.140625 L 1206.992188 742.140625 L 1066.5 590.796875 L 918.132812 742.140625 L 862.984375 742.140625 C 864.609375 738.902344 711.859375 613.375 716.363281 582.261719 C 722.164062 542.207031 777.859375 538.046875 777.859375 538.046875 C 746.566406 522.507812 701.921875 533.015625 701.921875 533.015625 L 749.519531 488.367188 L 882.679688 470.640625 L 975.246094 578.320312 L 1067.152344 564.53125 Z M 956.863281 579.632812 L 883.007812 492.636719 L 787.8125 610.167969 L 766.472656 611.148438 L 809.144531 652.183594 L 889.238281 586.527344 Z M 956.863281 579.632812 " fill-opacity="1" fill-rule="nonzero"/></g><g clip-path="url(#6e60fbf97a)"><path fill="#a2a2a3" d="M 1188.9375 742.140625 L 1175.480469 742.140625 L 1057.308594 617.226562 L 1064.691406 609.015625 Z M 1061.242188 683.042969 L 1035.640625 683.042969 L 1035.640625 708.648438 L 1061.242188 708.648438 Z M 1095.601562 683.042969 L 1070.003906 683.042969 L 1070.003906 708.648438 L 1095.601562 708.648438 Z M 1061.242188 716.53125 L 1035.640625 716.53125 L 1035.640625 742.132812 L 1061.242188 742.132812 Z M 1095.601562 716.53125 L 1070.003906 716.53125 L 1070.003906 742.132812 L 1095.601562 742.132812 Z M 457.929688 670.902344 L 427.0625 670.902344 L 427.0625 701.773438 L 457.929688 701.773438 Z M 499.347656 670.902344 L 468.480469 670.902344 L 468.480469 701.773438 L 499.347656 701.773438 Z M 457.929688 711.269531 L 427.0625 711.269531 L 427.0625 742.140625 L 457.929688 742.140625 Z M 499.347656 711.269531 L 468.480469 711.269531 L 468.480469 742.140625 L 499.347656 742.140625 Z M 887.085938 533.453125 L 872.738281 533.453125 L 872.738281 547.804688 L 887.085938 547.804688 Z M 906.339844 533.453125 L 891.992188 533.453125 L 891.992188 547.804688 L 906.339844 547.804688 Z M 887.085938 552.21875 L 872.738281 552.21875 L 872.738281 566.570312 L 887.085938 566.570312 Z M 906.339844 552.21875 L 891.992188 552.21875 L 891.992188 566.570312 L 906.339844 566.570312 Z M 468.484375 568.691406 L 315.019531 742.140625 L 327.714844 742.140625 L 475.632812 576.753906 Z M 468.484375 568.691406 " fill-opacity="1" fill-rule="nonzero"/></g><g transform="matrix(1, 0, 0, 1, 113, 776)"><g clip-path="url(#48ff6de145)"><g fill="#c21d2e" fill-opacity="1"><g transform="translate(1.300713, 137.045101)"><g><path d="M 54.984375 1.6875 C 39.515625 1.6875 27.628906 -0.890625 19.328125 -6.046875 C 11.035156 -11.203125 6.1875 -20.15625 4.78125 -32.90625 L 34.59375 -35.296875 C 35.0625 -32.109375 35.972656 -29.128906 37.328125 -26.359375 C 38.691406 -23.597656 40.800781 -21.347656 43.65625 -19.609375 C 46.519531 -17.878906 50.4375 -17.015625 55.40625 -17.015625 C 57.9375 -17.015625 60.5625 -17.25 63.28125 -17.71875 C 66 -18.1875 68.109375 -19.03125 69.609375 -20.25 C 71.960938 -23.71875 73.140625 -27.609375 73.140625 -31.921875 C 73.140625 -34.734375 72.570312 -37.03125 71.4375 -38.8125 C 70.3125 -40.59375 68.296875 -42 65.390625 -43.03125 C 62.484375 -44.0625 58.265625 -44.859375 52.734375 -45.421875 C 41.484375 -45.890625 32.550781 -47.484375 25.9375 -50.203125 C 19.332031 -52.921875 14.597656 -56.578125 11.734375 -61.171875 C 8.878906 -65.765625 7.453125 -71.066406 7.453125 -77.078125 C 7.453125 -84.296875 9.441406 -90.269531 13.421875 -95 C 17.410156 -99.738281 22.828125 -103.253906 29.671875 -105.546875 C 36.515625 -107.847656 44.296875 -109 53.015625 -109 C 68.117188 -109 79.375 -105.859375 86.78125 -99.578125 C 94.1875 -93.296875 98.6875 -83.875 100.28125 -71.3125 L 72.859375 -69.328125 C 72.203125 -73.460938 71.285156 -77.03125 70.109375 -80.03125 C 68.929688 -83.03125 66.957031 -85.347656 64.1875 -86.984375 C 61.425781 -88.628906 57.328125 -89.453125 51.890625 -89.453125 C 49.921875 -89.453125 47.738281 -89.285156 45.34375 -88.953125 C 42.957031 -88.628906 41.015625 -88 39.515625 -87.0625 C 38.203125 -85.28125 37.125 -83.359375 36.28125 -81.296875 C 35.4375 -79.234375 35.015625 -76.9375 35.015625 -74.40625 C 35.015625 -69.800781 36.46875 -66.535156 39.375 -64.609375 C 42.28125 -62.691406 47.4375 -61.21875 54.84375 -60.1875 C 64.21875 -59.71875 71.882812 -58.707031 77.84375 -57.15625 C 83.800781 -55.613281 88.394531 -53.597656 91.625 -51.109375 C 94.863281 -48.628906 97.113281 -45.675781 98.375 -42.25 C 99.644531 -38.832031 100.28125 -34.96875 100.28125 -30.65625 C 100.28125 -23.71875 98.332031 -17.832031 94.4375 -13 C 90.550781 -8.175781 85.207031 -4.519531 78.40625 -2.03125 C 71.601562 0.445312 63.796875 1.6875 54.984375 1.6875 Z M 54.984375 1.6875 "/></g></g></g><g fill="#c21d2e" fill-opacity="1"><g transform="translate(111.978798, 137.045101)"><g><path d="M 37.546875 -115.1875 C 32.859375 -115.1875 29.503906 -115.984375 27.484375 -117.578125 C 25.472656 -119.171875 24.46875 -121.515625 24.46875 -124.609375 C 24.46875 -127.890625 25.472656 -130.28125 27.484375 -131.78125 C 29.503906 -133.28125 32.859375 -134.03125 37.546875 -134.03125 C 42.234375 -134.03125 45.582031 -133.28125 47.59375 -131.78125 C 49.613281 -130.28125 50.625 -127.890625 50.625 -124.609375 C 50.625 -121.515625 49.613281 -119.171875 47.59375 -117.578125 C 45.582031 -115.984375 42.234375 -115.1875 37.546875 -115.1875 Z M 73.140625 -115.1875 C 68.441406 -115.1875 65.082031 -115.984375 63.0625 -117.578125 C 61.050781 -119.171875 60.046875 -121.515625 60.046875 -124.609375 C 60.046875 -127.890625 61.050781 -130.28125 63.0625 -131.78125 C 65.082031 -133.28125 68.441406 -134.03125 73.140625 -134.03125 C 77.828125 -134.03125 81.175781 -133.28125 83.1875 -131.78125 C 85.207031 -130.28125 86.21875 -127.890625 86.21875 -124.609375 C 86.21875 -121.515625 85.207031 -119.171875 83.1875 -117.578125 C 81.175781 -115.984375 77.828125 -115.1875 73.140625 -115.1875 Z M 52.3125 1.828125 C 41.53125 1.828125 33.019531 0.140625 26.78125 -3.234375 C 20.550781 -6.609375 16.097656 -11.71875 13.421875 -18.5625 C 10.753906 -25.40625 9.421875 -34.03125 9.421875 -44.4375 L 9.421875 -75.53125 C 9.421875 -81.34375 9.375 -86.875 9.28125 -92.125 C 9.1875 -97.375 9.046875 -102.4375 8.859375 -107.3125 L 36.421875 -107.3125 C 36.421875 -105.15625 36.394531 -102.222656 36.34375 -98.515625 C 36.300781 -94.816406 36.28125 -90.71875 36.28125 -86.21875 C 36.28125 -81.71875 36.253906 -77.210938 36.203125 -72.703125 C 36.160156 -68.203125 36.140625 -64.003906 36.140625 -60.109375 C 36.140625 -56.222656 36.140625 -53.0625 36.140625 -50.625 C 36.140625 -44.15625 36.703125 -38.457031 37.828125 -33.53125 C 38.953125 -28.613281 40.894531 -24.769531 43.65625 -22 C 46.425781 -19.238281 50.34375 -17.859375 55.40625 -17.859375 C 58.40625 -17.859375 61.21875 -18.234375 63.84375 -18.984375 C 66.46875 -19.734375 68.675781 -21 70.46875 -22.78125 C 71.3125 -25.59375 71.96875 -28.078125 72.4375 -30.234375 C 72.90625 -32.390625 73.234375 -34.921875 73.421875 -37.828125 C 73.609375 -40.734375 73.703125 -44.71875 73.703125 -49.78125 C 73.703125 -53.34375 73.703125 -57.726562 73.703125 -62.9375 C 73.703125 -68.144531 73.675781 -73.5625 73.625 -79.1875 C 73.582031 -84.8125 73.535156 -90.109375 73.484375 -95.078125 C 73.441406 -100.046875 73.375 -104.125 73.28125 -107.3125 L 100.84375 -107.3125 C 100.65625 -101.125 100.535156 -94.910156 100.484375 -88.671875 C 100.441406 -82.441406 100.421875 -76.085938 100.421875 -69.609375 L 100.5625 -37.828125 C 100.5625 -27.796875 98.640625 -19.875 94.796875 -14.0625 C 90.953125 -8.25 85.441406 -4.144531 78.265625 -1.75 C 71.085938 0.632812 62.4375 1.828125 52.3125 1.828125 Z M 52.3125 1.828125 "/></g></g></g><g fill="#c21d2e" fill-opacity="1"><g transform="translate(226.875864, 137.045101)"><g><path d="M 4.78125 0 L 4.78125 -25.875 C 14.71875 -35.53125 24.675781 -45 34.65625 -54.28125 C 44.644531 -63.5625 54.609375 -72.707031 64.546875 -81.71875 L 64.546875 -83.40625 L 5.90625 -82.703125 L 5.90625 -107.3125 L 94.515625 -107.3125 L 94.515625 -82.984375 C 84.578125 -73.222656 74.613281 -63.5625 64.625 -54 C 54.632812 -44.4375 44.671875 -35.0625 34.734375 -25.875 L 34.734375 -24.046875 C 36.609375 -24.046875 39.582031 -24.066406 43.65625 -24.109375 C 47.738281 -24.160156 52.332031 -24.207031 57.4375 -24.25 C 62.550781 -24.300781 67.6875 -24.347656 72.84375 -24.390625 C 78.007812 -24.441406 82.628906 -24.488281 86.703125 -24.53125 C 90.785156 -24.582031 93.765625 -24.609375 95.640625 -24.609375 L 95.640625 0 Z M 4.78125 0 "/></g></g></g><g fill="#c21d2e" fill-opacity="1"><g transform="translate(332.631783, 137.045101)"><g><path d="M 8.859375 0 C 8.953125 -2.90625 9.046875 -6.5625 9.140625 -10.96875 C 9.234375 -15.375 9.328125 -20.109375 9.421875 -25.171875 C 9.515625 -30.234375 9.582031 -35.25 9.625 -40.21875 C 9.675781 -45.1875 9.703125 -49.640625 9.703125 -53.578125 C 9.703125 -57.796875 9.675781 -62.34375 9.625 -67.21875 C 9.582031 -72.101562 9.515625 -77.03125 9.421875 -82 C 9.328125 -86.96875 9.234375 -91.65625 9.140625 -96.0625 C 9.046875 -100.46875 8.953125 -104.21875 8.859375 -107.3125 L 91.140625 -107.3125 L 91.140625 -87.203125 L 36.421875 -87.203125 L 36.421875 -62.015625 L 87.34375 -62.859375 L 87.34375 -44.859375 L 36.421875 -45.703125 L 36.421875 -20.109375 L 91.84375 -20.109375 L 91.84375 0 Z M 8.859375 0 "/></g></g></g><g fill="#c21d2e" fill-opacity="1"><g transform="translate(434.590675, 137.045101)"><g><path d="M 9 0 C 9.09375 -5.4375 9.160156 -11.222656 9.203125 -17.359375 C 9.253906 -23.503906 9.300781 -30.347656 9.34375 -37.890625 C 9.394531 -45.441406 9.421875 -54.046875 9.421875 -63.703125 C 9.421875 -70.460938 9.375 -77.640625 9.28125 -85.234375 C 9.1875 -92.828125 9.046875 -100.1875 8.859375 -107.3125 L 46.40625 -107.3125 L 77.21875 -43.875 C 78.53125 -40.5 79.890625 -37.144531 81.296875 -33.8125 C 82.703125 -30.488281 83.734375 -27.65625 84.390625 -25.3125 L 86.359375 -25.3125 C 85.984375 -28.21875 85.65625 -31.238281 85.375 -34.375 C 85.09375 -37.519531 84.953125 -40.59375 84.953125 -43.59375 C 84.953125 -48.5625 84.925781 -53.972656 84.875 -59.828125 C 84.832031 -65.691406 84.765625 -71.554688 84.671875 -77.421875 C 84.578125 -83.285156 84.503906 -88.816406 84.453125 -94.015625 C 84.410156 -99.222656 84.34375 -103.65625 84.25 -107.3125 L 109.703125 -107.3125 C 109.421875 -89.78125 109.28125 -72.289062 109.28125 -54.84375 C 109.28125 -37.6875 109.421875 -19.40625 109.703125 0 L 72.296875 0 L 43.875 -56.25 C 41.53125 -61.96875 39.628906 -66.914062 38.171875 -71.09375 C 36.722656 -75.269531 35.484375 -79.09375 34.453125 -82.5625 L 32.484375 -82.5625 C 32.578125 -81.71875 32.691406 -80.332031 32.828125 -78.40625 C 32.972656 -76.488281 33.140625 -74.398438 33.328125 -72.140625 C 33.515625 -69.890625 33.65625 -67.800781 33.75 -65.875 C 33.84375 -63.957031 33.890625 -62.625 33.890625 -61.875 C 33.890625 -50.34375 33.910156 -39.46875 33.953125 -29.25 C 34.003906 -19.03125 34.078125 -9.28125 34.171875 0 Z M 9 0 "/></g></g></g><g fill="#c21d2e" fill-opacity="1"><g transform="translate(558.347571, 137.045101)"><g/></g></g><g fill="#1d2a3a" fill-opacity="1"><g transform="translate(597.307594, 137.045101)"><g><path d="M 22.640625 -117.296875 C 17.953125 -117.296875 14.597656 -118.09375 12.578125 -119.6875 C 10.566406 -121.28125 9.5625 -123.625 9.5625 -126.71875 C 9.5625 -129.90625 10.566406 -132.25 12.578125 -133.75 C 14.597656 -135.25 17.953125 -136 22.640625 -136 C 27.328125 -136 30.675781 -135.25 32.6875 -133.75 C 34.707031 -132.25 35.71875 -129.90625 35.71875 -126.71875 C 35.71875 -123.625 34.707031 -121.28125 32.6875 -119.6875 C 30.675781 -118.09375 27.328125 -117.296875 22.640625 -117.296875 Z M 8.859375 0 C 9.140625 -8.90625 9.300781 -17.832031 9.34375 -26.78125 C 9.394531 -35.738281 9.421875 -44.671875 9.421875 -53.578125 C 9.421875 -62.578125 9.394531 -71.53125 9.34375 -80.4375 C 9.300781 -89.351562 9.140625 -98.3125 8.859375 -107.3125 L 36.5625 -107.3125 C 36.28125 -98.40625 36.113281 -89.472656 36.0625 -80.515625 C 36.019531 -71.554688 36 -62.625 36 -53.71875 C 36 -44.71875 36.019531 -35.738281 36.0625 -26.78125 C 36.113281 -17.832031 36.28125 -8.90625 36.5625 0 Z M 8.859375 0 "/></g></g></g><g fill="#1d2a3a" fill-opacity="1"><g transform="translate(647.935607, 137.045101)"><g><path d="M 9 0 C 9.09375 -5.4375 9.160156 -11.222656 9.203125 -17.359375 C 9.253906 -23.503906 9.300781 -30.347656 9.34375 -37.890625 C 9.394531 -45.441406 9.421875 -54.046875 9.421875 -63.703125 C 9.421875 -70.460938 9.375 -77.640625 9.28125 -85.234375 C 9.1875 -92.828125 9.046875 -100.1875 8.859375 -107.3125 L 46.40625 -107.3125 L 77.21875 -43.875 C 78.53125 -40.5 79.890625 -37.144531 81.296875 -33.8125 C 82.703125 -30.488281 83.734375 -27.65625 84.390625 -25.3125 L 86.359375 -25.3125 C 85.984375 -28.21875 85.65625 -31.238281 85.375 -34.375 C 85.09375 -37.519531 84.953125 -40.59375 84.953125 -43.59375 C 84.953125 -48.5625 84.925781 -53.972656 84.875 -59.828125 C 84.832031 -65.691406 84.765625 -71.554688 84.671875 -77.421875 C 84.578125 -83.285156 84.503906 -88.816406 84.453125 -94.015625 C 84.410156 -99.222656 84.34375 -103.65625 84.25 -107.3125 L 109.703125 -107.3125 C 109.421875 -89.78125 109.28125 -72.289062 109.28125 -54.84375 C 109.28125 -37.6875 109.421875 -19.40625 109.703125 0 L 72.296875 0 L 43.875 -56.25 C 41.53125 -61.96875 39.628906 -66.914062 38.171875 -71.09375 C 36.722656 -75.269531 35.484375 -79.09375 34.453125 -82.5625 L 32.484375 -82.5625 C 32.578125 -81.71875 32.691406 -80.332031 32.828125 -78.40625 C 32.972656 -76.488281 33.140625 -74.398438 33.328125 -72.140625 C 33.515625 -69.890625 33.65625 -67.800781 33.75 -65.875 C 33.84375 -63.957031 33.890625 -62.625 33.890625 -61.875 C 33.890625 -50.34375 33.910156 -39.46875 33.953125 -29.25 C 34.003906 -19.03125 34.078125 -9.28125 34.171875 0 Z M 9 0 "/></g></g></g><g clip-path="url(#66ca654621)"><g fill="#1d2a3a" fill-opacity="1"><g transform="translate(771.692515, 137.045101)"><g><path d="M 54.84375 -60.1875 C 64.21875 -59.71875 71.882812 -58.707031 77.84375 -57.15625 C 83.800781 -55.613281 88.394531 -53.597656 91.625 -51.109375 C 94.863281 -48.628906 97.113281 -45.675781 98.375 -42.25 C 99.644531 -38.832031 100.28125 -34.96875 100.28125 -30.65625 C 100.28125 -23.90625 98.425781 -18.140625 94.71875 -13.359375 C 91.019531 -8.578125 85.882812 -4.921875 79.3125 -2.390625 C 72.75 0.140625 65.25 1.5 56.8125 1.6875 L 56.109375 4.21875 C 61.171875 4.59375 65.15625 5.738281 68.0625 7.65625 C 70.976562 9.582031 72.4375 12.09375 72.4375 15.1875 C 72.4375 17.8125 71.492188 20.082031 69.609375 22 C 67.734375 23.925781 65.363281 25.40625 62.5 26.4375 C 59.644531 27.46875 56.71875 27.984375 53.71875 27.984375 C 51.09375 27.984375 48.722656 27.628906 46.609375 26.921875 C 44.503906 26.222656 42.796875 25.5 41.484375 24.75 L 43.171875 16.03125 C 45.234375 16.96875 47.53125 17.4375 50.0625 17.4375 C 52.3125 17.4375 54.046875 16.988281 55.265625 16.09375 C 56.484375 15.207031 57.09375 14.25 57.09375 13.21875 C 57.09375 11.625 56.34375 10.425781 54.84375 9.625 C 53.34375 8.832031 50.625 8.15625 46.6875 7.59375 L 48.234375 1.546875 C 34.921875 0.890625 24.675781 -2.082031 17.5 -7.375 C 10.332031 -12.675781 6.09375 -21.1875 4.78125 -32.90625 L 34.59375 -35.296875 C 35.0625 -32.109375 35.972656 -29.128906 37.328125 -26.359375 C 38.691406 -23.597656 40.800781 -21.347656 43.65625 -19.609375 C 46.519531 -17.878906 50.4375 -17.015625 55.40625 -17.015625 C 57.9375 -17.015625 60.5625 -17.25 63.28125 -17.71875 C 66 -18.1875 68.109375 -19.03125 69.609375 -20.25 C 71.960938 -23.71875 73.140625 -27.609375 73.140625 -31.921875 C 73.140625 -34.734375 72.570312 -37.03125 71.4375 -38.8125 C 70.3125 -40.59375 68.296875 -42 65.390625 -43.03125 C 62.484375 -44.0625 58.265625 -44.859375 52.734375 -45.421875 C 41.484375 -45.890625 32.550781 -47.484375 25.9375 -50.203125 C 19.332031 -52.921875 14.597656 -56.578125 11.734375 -61.171875 C 8.878906 -65.765625 7.453125 -71.066406 7.453125 -77.078125 C 7.453125 -84.296875 9.441406 -90.269531 13.421875 -95 C 17.410156 -99.738281 22.828125 -103.253906 29.671875 -105.546875 C 36.515625 -107.847656 44.296875 -109 53.015625 -109 C 68.117188 -109 79.375 -105.859375 86.78125 -99.578125 C 94.1875 -93.296875 98.6875 -83.875 100.28125 -71.3125 L 72.859375 -69.328125 C 72.203125 -73.460938 71.285156 -77.03125 70.109375 -80.03125 C 68.929688 -83.03125 66.957031 -85.347656 64.1875 -86.984375 C 61.425781 -88.628906 57.328125 -89.453125 51.890625 -89.453125 C 49.921875 -89.453125 47.738281 -89.285156 45.34375 -88.953125 C 42.957031 -88.628906 41.015625 -88 39.515625 -87.0625 C 38.203125 -85.28125 37.125 -83.359375 36.28125 -81.296875 C 35.4375 -79.234375 35.015625 -76.9375 35.015625 -74.40625 C 35.015625 -69.800781 36.46875 -66.535156 39.375 -64.609375 C 42.28125 -62.691406 47.4375 -61.21875 54.84375 -60.1875 Z M 54.84375 -60.1875 "/></g></g></g></g><g fill="#1d2a3a" fill-opacity="1"><g transform="translate(882.3706, 137.045101)"><g><path d="M 105.484375 0 L 76.796875 0 C 76.046875 -4.03125 75.175781 -8.015625 74.1875 -11.953125 C 73.207031 -15.890625 72.203125 -19.875 71.171875 -23.90625 L 52.453125 -23.90625 C 49.265625 -23.90625 46.191406 -23.90625 43.234375 -23.90625 C 40.285156 -23.90625 37.40625 -23.90625 34.59375 -23.90625 C 32.15625 -14.4375 30 -6.46875 28.125 0 L -0.140625 0 C 1.921875 -7.59375 4.265625 -16.050781 6.890625 -25.375 C 9.515625 -34.707031 12.207031 -44.269531 14.96875 -54.0625 C 17.738281 -63.863281 20.363281 -73.359375 22.84375 -82.546875 C 25.332031 -91.742188 27.46875 -100 29.25 -107.3125 L 75.8125 -107.3125 C 77.6875 -100.09375 79.84375 -91.957031 82.28125 -82.90625 C 84.71875 -73.851562 87.316406 -64.472656 90.078125 -54.765625 C 92.847656 -45.066406 95.546875 -35.53125 98.171875 -26.15625 C 100.796875 -16.78125 103.234375 -8.0625 105.484375 0 Z M 38.53125 -39.09375 L 66.9375 -39.09375 C 64.40625 -47.71875 61.894531 -56.414062 59.40625 -65.1875 C 56.925781 -73.957031 54.75 -82.796875 52.875 -91.703125 L 51.75 -91.703125 C 49.5 -82.890625 47.25 -73.976562 45 -64.96875 C 42.75 -55.96875 40.59375 -47.34375 38.53125 -39.09375 Z M 38.53125 -39.09375 "/></g></g></g><g fill="#1d2a3a" fill-opacity="1"><g transform="translate(992.90803, 137.045101)"><g><path d="M 105.484375 0 L 76.796875 0 C 76.046875 -4.03125 75.175781 -8.015625 74.1875 -11.953125 C 73.207031 -15.890625 72.203125 -19.875 71.171875 -23.90625 L 52.453125 -23.90625 C 49.265625 -23.90625 46.191406 -23.90625 43.234375 -23.90625 C 40.285156 -23.90625 37.40625 -23.90625 34.59375 -23.90625 C 32.15625 -14.4375 30 -6.46875 28.125 0 L -0.140625 0 C 1.921875 -7.59375 4.265625 -16.050781 6.890625 -25.375 C 9.515625 -34.707031 12.207031 -44.269531 14.96875 -54.0625 C 17.738281 -63.863281 20.363281 -73.359375 22.84375 -82.546875 C 25.332031 -91.742188 27.46875 -100 29.25 -107.3125 L 75.8125 -107.3125 C 77.6875 -100.09375 79.84375 -91.957031 82.28125 -82.90625 C 84.71875 -73.851562 87.316406 -64.472656 90.078125 -54.765625 C 92.847656 -45.066406 95.546875 -35.53125 98.171875 -26.15625 C 100.796875 -16.78125 103.234375 -8.0625 105.484375 0 Z M 38.53125 -39.09375 L 66.9375 -39.09375 C 64.40625 -47.71875 61.894531 -56.414062 59.40625 -65.1875 C 56.925781 -73.957031 54.75 -82.796875 52.875 -91.703125 L 51.75 -91.703125 C 49.5 -82.890625 47.25 -73.976562 45 -64.96875 C 42.75 -55.96875 40.59375 -47.34375 38.53125 -39.09375 Z M 38.53125 -39.09375 "/></g></g></g><g fill="#1d2a3a" fill-opacity="1"><g transform="translate(1103.445476, 137.045101)"><g><path d="M 28.96875 0 C 29.15625 -8.71875 29.296875 -17.578125 29.390625 -26.578125 C 29.484375 -35.578125 29.53125 -44.203125 29.53125 -52.453125 C 29.53125 -58.265625 29.503906 -64.242188 29.453125 -70.390625 C 29.410156 -76.535156 29.34375 -81.953125 29.25 -86.640625 C 24.9375 -86.640625 20.109375 -86.613281 14.765625 -86.5625 C 9.421875 -86.519531 4.453125 -86.40625 -0.140625 -86.21875 L -0.140625 -107.3125 L 86.5 -107.3125 L 86.5 -86.21875 C 82.1875 -86.40625 77.285156 -86.519531 71.796875 -86.5625 C 66.304688 -86.613281 61.3125 -86.640625 56.8125 -86.640625 C 56.8125 -84.765625 56.785156 -82.160156 56.734375 -78.828125 C 56.691406 -75.503906 56.644531 -71.941406 56.59375 -68.140625 C 56.550781 -64.335938 56.53125 -60.796875 56.53125 -57.515625 C 56.53125 -54.234375 56.53125 -51.75 56.53125 -50.0625 C 56.53125 -33.28125 56.671875 -16.59375 56.953125 0 Z M 28.96875 0 "/></g></g></g></g></g></svg>