<svg xmlns="http://www.w3.org/2000/svg" width="79" height="49" viewBox="0 0 79 49">
    <g fill="none" fill-rule="evenodd">
        <path fill="#FFDE31" d="M75.775 41.453c-1.78-1.423-3.993-3.196-8.48-3.196s-6.7 1.773-8.48 3.196c-1.543 1.237-2.659 2.13-5.383 2.13-2.729 0-3.843-.893-5.388-2.13-1.78-1.423-3.995-3.196-8.48-3.196-4.487 0-6.704 1.773-8.48 3.196-1.544 1.237-2.658 2.13-5.386 2.13s-3.843-.893-5.386-2.13c-1.78-1.423-3.994-3.196-8.48-3.196-4.486 0-6.701 1.773-8.48 3.196-.867.695-1.596 1.282-2.555 1.66v4.853c2.587-.551 4.165-1.811 5.495-2.877 1.575-1.262 2.708-2.168 5.54-2.168 2.833 0 3.968.906 5.537 2.168 1.759 1.406 3.947 3.158 8.329 3.158 4.382 0 6.57-1.752 8.328-3.158 1.571-1.262 2.705-2.168 5.538-2.168 2.831 0 3.967.906 5.538 2.168 1.76 1.406 3.946 3.158 8.33 3.158 4.378 0 6.567-1.752 8.325-3.158 1.571-1.262 2.707-2.168 5.538-2.168 2.833 0 3.968.906 5.538 2.168 1.321 1.054 2.882 2.307 5.435 2.863v-4.864c-.927-.382-1.647-.956-2.493-1.635"/>
        <path stroke="#FFDE31" stroke-width=".115" d="M75.775 41.453c-1.78-1.423-3.993-3.196-8.48-3.196s-6.7 1.773-8.48 3.196c-1.543 1.237-2.659 2.13-5.383 2.13-2.729 0-3.843-.893-5.388-2.13-1.78-1.423-3.995-3.196-8.48-3.196-4.487 0-6.704 1.773-8.48 3.196-1.544 1.237-2.658 2.13-5.386 2.13s-3.843-.893-5.386-2.13c-1.78-1.423-3.994-3.196-8.48-3.196-4.486 0-6.701 1.773-8.48 3.196-.867.695-1.596 1.282-2.555 1.66v4.853c2.587-.551 4.165-1.811 5.495-2.877 1.575-1.262 2.708-2.168 5.54-2.168 2.833 0 3.968.906 5.537 2.168 1.759 1.406 3.947 3.158 8.329 3.158 4.382 0 6.57-1.752 8.328-3.158 1.571-1.262 2.705-2.168 5.538-2.168 2.831 0 3.967.906 5.538 2.168 1.76 1.406 3.946 3.158 8.33 3.158 4.378 0 6.567-1.752 8.325-3.158 1.571-1.262 2.707-2.168 5.538-2.168 2.833 0 3.968.906 5.538 2.168 1.321 1.054 2.882 2.307 5.435 2.863v-4.864c-.927-.382-1.647-.956-2.493-1.635z"/>
        <path fill="#FFDE31" d="M6.292 7.294C7.867 6.038 9 5.129 11.832 5.129c2.833 0 3.968.909 5.537 2.165 1.759 1.409 3.947 3.16 8.329 3.16 4.382 0 6.57-1.751 8.328-3.16 1.571-1.256 2.705-2.165 5.538-2.165 2.831 0 3.967.909 5.538 2.165 1.76 1.409 3.946 3.16 8.33 3.16 4.379 0 6.567-1.751 8.325-3.16 1.57-1.256 2.706-2.165 5.538-2.165 2.832 0 3.967.909 5.538 2.165 1.321 1.057 2.882 2.309 5.434 2.867V5.294c-.926-.38-1.645-.955-2.492-1.63-1.78-1.427-3.992-3.199-8.48-3.199-4.487 0-6.7 1.772-8.48 3.199-1.543 1.234-2.659 2.127-5.383 2.127-2.729 0-3.843-.893-5.388-2.127-1.78-1.427-3.995-3.199-8.48-3.199-4.488 0-6.704 1.772-8.48 3.199-1.544 1.234-2.658 2.127-5.386 2.127s-3.843-.893-5.386-2.127c-1.78-1.427-3.994-3.199-8.48-3.199-4.486 0-6.701 1.772-8.48 3.199-.867.692-1.597 1.278-2.555 1.659v4.85c2.587-.552 4.165-1.811 5.495-2.879"/>
        <path stroke="#FFDE31" stroke-width=".115" d="M6.292 7.294C7.867 6.038 9 5.129 11.832 5.129c2.833 0 3.968.909 5.537 2.165 1.759 1.409 3.947 3.16 8.329 3.16 4.382 0 6.57-1.751 8.328-3.16 1.571-1.256 2.705-2.165 5.538-2.165 2.831 0 3.967.909 5.538 2.165 1.76 1.409 3.946 3.16 8.33 3.16 4.379 0 6.567-1.751 8.325-3.16 1.57-1.256 2.706-2.165 5.538-2.165 2.832 0 3.967.909 5.538 2.165 1.321 1.057 2.882 2.309 5.434 2.867V5.294c-.926-.38-1.645-.955-2.492-1.63-1.78-1.427-3.992-3.199-8.48-3.199-4.487 0-6.7 1.772-8.48 3.199-1.543 1.234-2.659 2.127-5.383 2.127-2.729 0-3.843-.893-5.388-2.127-1.78-1.427-3.995-3.199-8.48-3.199-4.488 0-6.704 1.772-8.48 3.199-1.544 1.234-2.658 2.127-5.386 2.127s-3.843-.893-5.386-2.127c-1.78-1.427-3.994-3.199-8.48-3.199-4.486 0-6.701 1.772-8.48 3.199-.867.692-1.597 1.278-2.555 1.659v4.85c2.587-.552 4.165-1.811 5.495-2.879z"/>
        <path fill="#FFFFFE" d="M76.579 39.452a1.46 1.46 0 0 0 1.462-1.453 1.46 1.46 0 0 0-1.462-1.456A1.46 1.46 0 0 0 75.115 38c0 .8.655 1.453 1.464 1.453m-1.569-1.453c0-.863.7-1.562 1.569-1.562.868 0 1.568.7 1.568 1.562 0 .861-.7 1.561-1.568 1.561-.87 0-1.569-.7-1.569-1.561"/>
        <path stroke="#FFFFFE" stroke-width=".196" d="M76.579 39.452a1.46 1.46 0 0 0 1.462-1.453 1.46 1.46 0 0 0-1.462-1.456A1.46 1.46 0 0 0 75.115 38c0 .8.655 1.453 1.464 1.453zm-1.569-1.453c0-.863.7-1.562 1.569-1.562.868 0 1.568.7 1.568 1.562 0 .861-.7 1.561-1.568 1.561-.87 0-1.569-.7-1.569-1.561z"/>
        <path fill="#FFFFFE" d="M76.177 37.904h.433c.238 0 .55-.119.55-.429 0-.205-.149-.376-.523-.376h-.46v.805zM76 37h.637c.448 0 .706.2.706.485 0 .223-.186.422-.514.49l.722.788h-.22l-.667-.76h-.487v.76H76V37z"/>
        <path stroke="#FFFFFE" stroke-width=".196" d="M76.177 37.904h.433c.238 0 .55-.119.55-.429 0-.205-.149-.376-.523-.376h-.46v.805zM76 37h.637c.448 0 .706.2.706.485 0 .223-.186.422-.514.49l.722.788h-.22l-.667-.76h-.487v.76H76V37z"/>
        <path fill="#2D2D2D" d="M.797 34.86H5.42V18.582H.797V34.86zm0-16.896H5.42V14.11H.797v3.853zm17.832-.109v-3.744H6.953v3.853h6.26L6.937 30.83v4.03h11.836v-3.638H12.03l6.599-13.368zm7.408-4.206c-3.19 0-6.097 1.318-6.097 6.06v9.448c0 4.742 2.906 6.06 6.097 6.06 3.19 0 6.094-1.318 6.094-6.06V19.71c0-4.743-2.903-6.061-6.094-6.061zm1.254 16.506c0 .855-.25 1.64-1.254 1.64-1.04 0-1.29-.785-1.29-1.64V18.71c0-.855.25-1.638 1.253-1.638 1.04 0 1.291.783 1.291 1.638v11.445zm12.67-16.506c-3.263 0-5.987 1.354-5.987 6.094v9.414c0 4.742 2.724 6.06 5.952 6.06 4.087 0 6.096-1.891 6.096-5.74v-3.28h-4.734v3.778c0 .856-.287 1.641-1.326 1.641-.97 0-1.219-.785-1.219-1.641l-.038-11.049c0-.857.25-1.641 1.257-1.641 1.075 0 1.326.784 1.326 1.641v2.493h4.734v-2.21c0-4.492-2.942-5.56-6.06-5.56zm10.813.462l-4.16 20.75h4.983l.502-3.566h3.085l.5 3.565h5.019l-4.194-20.749h-5.735zm1.827 13.584l1.04-7.417 1.04 7.417H52.6zm17.531-5.348l-1.293-8.236h-6.954v20.75h4.625V21.384l2.08 13.475h3.047l2.079-13.475V34.86h4.552V14.111h-6.881l-1.255 8.236z"/>
    </g>
</svg>
